<?xml version="1.0" encoding="UTF-8"?>
<svg id="Capa_2" data-name="Capa 2" xmlns="http://www.w3.org/2000/svg" xmlns:xlink="http://www.w3.org/1999/xlink" viewBox="0 0 262.4 317.78">
  <defs>
    <style>
      .cls-1 {
        fill: #dbdb7b;
      }

      .cls-2 {
        fill: #83d0d7;
      }

      .cls-3, .cls-4, .cls-5 {
        fill: #f068b2;
      }

      .cls-6 {
        fill: #e7f2a5;
      }

      .cls-7, .cls-8 {
        fill: none;
      }

      .cls-7, .cls-4, .cls-5 {
        stroke: #29005f;
        stroke-miterlimit: 10;
      }

      .cls-7, .cls-5 {
        stroke-width: 3px;
      }

      .cls-9 {
        fill: #29005f;
      }

      .cls-10 {
        fill: #494ea1;
      }

      .cls-4 {
        stroke-width: 2px;
      }

      .cls-11 {
        fill: #d94950;
      }

      .cls-12 {
        clip-path: url(#clippath);
      }
    </style>
    <clipPath id="clippath">
      <circle class="cls-8" cx="126.79" cy="132.2" r="109.46"/>
    </clipPath>
  </defs>
  <g id="Capa_1-2" data-name="Capa 1">
    <g>
      <circle class="cls-1" cx="131.2" cy="133.63" r="131.17"/>
      <g>
        <circle class="cls-11" cx="126.79" cy="133.63" r="109.46"/>
        <path class="cls-3" d="M176.46,231.18c.04.08-.46.42-1.49,1-.52.29-1.16.64-1.92,1.06-.77.42-1.66.9-2.72,1.36-1.05.48-2.22,1.01-3.52,1.6-1.31.55-2.77,1.09-4.34,1.71-3.16,1.18-6.88,2.35-11.14,3.43-4.27,1-9.07,2-14.4,2.51-5.32.55-11.16.83-17.41.44-12.48-.7-26.72-3.68-41.05-10.43-7.16-3.35-14.29-7.69-21.09-13.04-6.79-5.34-13.29-11.67-18.97-19.07-5.71-7.37-10.75-15.69-14.6-24.86-2.01-4.55-3.58-9.36-4.99-14.28-1.34-4.94-2.34-10.04-3.04-15.25-2.66-20.82.67-43.62,11.01-64.1,2.53-5.14,5.58-10.07,8.94-14.82.87-1.17,1.67-2.39,2.6-3.52.91-1.14,1.83-2.29,2.74-3.43,1.94-2.2,3.86-4.44,5.97-6.52,4.17-4.19,8.63-8.17,13.51-11.68,4.85-3.52,10.01-6.7,15.4-9.49,5.43-2.72,11.03-5.02,16.73-6.87,5.7-1.88,11.55-3.15,17.39-4.05,2.92-.48,5.86-.72,8.78-.99,1.47-.07,2.93-.13,4.39-.2,1.46-.09,2.92-.02,4.38-.03,5.82.08,11.6.51,17.24,1.49,22.65,3.68,43.04,14.4,58.32,28.8,3.8,3.63,7.33,7.44,10.54,11.43,3.15,4.03,6.11,8.13,8.61,12.43,5.15,8.51,8.92,17.48,11.52,26.43,2.64,8.95,3.94,17.93,4.26,26.56.33,8.64-.35,16.96-1.86,24.72-2.97,15.56-8.94,28.83-15.71,39.33-3.36,5.29-7.02,9.84-10.6,13.82-3.55,4.01-7.17,7.31-10.5,10.17-3.38,2.8-6.52,5.12-9.33,6.99-1.42.91-2.72,1.77-3.93,2.51-1.24.7-2.36,1.33-3.36,1.9-.99.58-1.91,1.02-2.7,1.4-.79.37-1.45.68-1.99.93-1.08.48-1.64.69-1.68.61-.04-.08.45-.44,1.44-1.08.5-.31,1.12-.69,1.86-1.15.74-.45,1.61-.96,2.55-1.6.95-.62,2.02-1.32,3.2-2.09,1.16-.79,2.39-1.71,3.75-2.68,2.68-1.97,5.67-4.37,8.89-7.24,3.16-2.93,6.61-6.26,9.97-10.28,3.39-3.99,6.85-8.52,10.01-13.74,6.37-10.38,11.92-23.36,14.57-38.45,1.35-7.53,1.89-15.57,1.47-23.9-.42-8.32-1.76-16.95-4.39-25.53-2.59-8.58-6.29-17.17-11.3-25.3-2.43-4.11-5.31-8.02-8.35-11.86-3.1-3.8-6.51-7.43-10.17-10.88-14.71-13.69-34.26-23.84-55.9-27.29-5.39-.92-10.91-1.31-16.47-1.38-1.39.02-2.78-.05-4.18.04-1.39.07-2.79.13-4.19.2-2.79.27-5.59.5-8.38.96-5.57.88-11.15,2.09-16.58,3.89-5.44,1.77-10.78,3.97-15.97,6.57-5.15,2.67-10.07,5.69-14.7,9.05-4.65,3.34-8.91,7.14-12.9,11.13-2.02,1.98-3.85,4.11-5.71,6.21-.88,1.09-1.75,2.18-2.62,3.27-.89,1.07-1.66,2.24-2.49,3.35-3.21,4.53-6.14,9.23-8.57,14.13-9.94,19.54-13.23,41.31-10.81,61.26.64,4.99,1.57,9.88,2.81,14.63,1.32,4.72,2.79,9.35,4.68,13.73,3.63,8.84,8.4,16.88,13.81,24.02,5.39,7.17,11.58,13.33,18.07,18.57,6.49,5.24,13.31,9.53,20.2,12.87,13.77,6.74,27.53,9.88,39.67,10.84,6.08.51,11.78.38,17-.01,5.23-.35,9.95-1.18,14.18-2.02,4.21-.92,7.92-1.92,11.09-2.93,1.58-.53,3.05-.99,4.37-1.46,1.31-.5,2.51-.95,3.57-1.36,1.08-.38,2-.78,2.8-1.12.8-.33,1.48-.6,2.02-.82,1.09-.43,1.68-.61,1.72-.53Z"/>
      </g>
      <g class="cls-12">
        <path class="cls-5" d="M147.44,203.39l3.01,112.9h-69.44l20.7-120.02s-11.13-46.95-12.02-53.99c-.89-7.04,6.35-24.54,8.46-29.52,1.93-4.55,7.32-24.78,10.89-28.8.34-.38.66-.62.96-.68.9-.19,1.71.25,2.43,1.01,2.04,2.15,3.25,6.88,3.25,6.88,6.98-3.89,9.29-3.19,10.9-.72,1.62,2.47-2.28,12.18-2.28,12.18,0,0,6.4-.7,9.01,1.39,2.62,2.08,2.73,10.9,2.73,10.9,0,0,4.45-1.34,6.95,0,2.51,1.34,4.23,6.79,4.23,6.79,0,0,9.06-1.11,10.25,5.68,1.19,6.79-1.8,21.58-1.8,21.58,6.9,34.89-8.24,54.41-8.24,54.41Z"/>
      </g>
      <g>
        <path class="cls-9" d="M153.31,149.28c-1.75,3.24-3.76,6.77-7.48,8-1.42.47-3.03.54-4.44-.02-1.4-.57-2.48-1.68-3.15-3.02-.74-1.48-.97-3.06-.9-4.66-2.23,2.59-5.31,5.6-9.02,4.43-3.23-1.02-4.38-4.59-4.54-7.64-.06-1.2-.02-2.41.09-3.6-1.02,1.16-2.49,1.78-4.04,1.78-1.71,0-3.31-.76-4.51-1.96-2.59-2.58-3.01-6.39-2.84-9.87.09-1.77.27-3.54.58-5.28.06-.36.12-.72.19-1.08.26-1.37.58-2.72.97-4.05.65-2.27,1.3-5.1,2.3-7.24.66-1.46,1.42-2.89,2.23-4.27,1.58-2.66,3.41-5.16,5.48-7.45.34-.38.85.37.5.76-2.21,2.45-3.91,5.57-5.53,8.44-.2.34-.39.69-.58,1.03-.58,1.1-1.13,2.22-1.63,3.36-2.13,4.9-3.4,10.17-3.7,15.51-.18,3.32.07,7.03,2.55,9.53,1.02,1.04,2.37,1.75,3.84,1.78,1.4.03,2.84-.49,3.71-1.63.14-.19.38-.2.56-.11.25-2.14.74-4.25,1.39-6.28,2.27-7.07,6.52-13.23,10.71-19.27.29-.42.97-.78.68-.35-2.23,3.21-4.45,7.18-6.4,10.58-3.39,5.88-6.01,12.53-5.76,19.42.11,2.94,1.2,6.74,4.59,7.29,3.4.55,5.99-2.43,7.93-4.74.1-.12.22-.14.33-.13.17-1.58.57-3.15.97-4.64,1.91-7.15,4.92-13.99,8.88-20.24.27-.43.96-1.19.69-.75-2.07,3.27-3.87,7.84-5.4,11.38-1.35,3.15-2.48,6.41-3.37,9.73-.85,3.19-1.82,6.88-.18,9.97.69,1.3,1.8,2.35,3.25,2.73,1.48.39,3.08.06,4.43-.62,2.87-1.46,4.48-4.47,5.96-7.2.24-.45.94-.05.69.41Z"/>
        <path class="cls-9" d="M153.31,149.28s.06-.15-.05-.33c-.05-.09-.18-.17-.32-.17-.15,0-.2.13-.31.38-.44.89-1.06,2.22-2.15,3.83-.55.8-1.25,1.65-2.19,2.43-.94.77-2.14,1.45-3.58,1.74-1.41.3-3.2.09-4.56-1.03-1.36-1.08-2.22-2.81-2.48-4.67-.27-1.87.02-3.83.46-5.76.45-1.93.99-3.92,1.66-5.98.66-2.05,1.45-4.16,2.36-6.29.89-2.12,1.79-4.35,2.84-6.61.53-1.13,1.09-2.27,1.74-3.4l.5-.85.06-.11v-.02c-.05-.04.08.03.21.11.1.06.22.11.33.15.11.07.17.04.15.06.02.02.08.14.14.22.06.08.14.15.25.29.13.15.04.04.07.08l-.05.05c-.09.09-.18.21-.27.32-.09.11-.17.22-.23.33l-.25.41-.5.83c-1.33,2.22-2.58,4.58-3.72,7.06-1.14,2.48-2.16,5.09-3.05,7.81-.44,1.36-.84,2.75-1.22,4.17-.37,1.42-.71,2.84-.86,4.26l-.96.37c.02-.14-.02-.19,0-.14,0,.01.02.03.04.05,0,0,.02.02.03.03.7.57.19.17.34.3h-.01s-.09.12-.09.12l-.35.42-.72.83c-.5.55-1.03,1.09-1.61,1.6-1.15,1-2.6,1.95-4.36,2.14-.87.09-1.75,0-2.6-.29-.85-.3-1.62-.84-2.21-1.5-1.18-1.34-1.72-2.98-2-4.58-.83-6.45,1.1-12.88,4.02-18.73.73-1.47,1.55-2.92,2.36-4.32.82-1.42,1.65-2.84,2.48-4.28.85-1.43,1.72-2.86,2.67-4.27l.36-.53.18-.26.02-.03h0s0,0,.06.03c.14.11.38.22.48.29.06.03.13.06.2.08.04.02.08.03.12.02.03-.01-.02.03,0,.15.04.22.2.54.31.76l-.03.02s-.08.06-.11.09c-.04.05-.02.02-.08.1l-.18.26c-.48.69-.95,1.38-1.43,2.08-3.79,5.53-7.46,11.34-9.32,17.92-.45,1.59-.78,3.2-.96,4.8l-1.25.34c0,.06,0-.13-.01-.11,0,0,.01.01.03.03h.02c.9.7.24.22.43.38l-.05.06c-.06.08-.13.16-.2.23-.27.3-.57.56-.9.77-.65.44-1.38.71-2.12.84-1.46.28-3.06-.04-4.3-.8-2.52-1.53-3.8-4.29-4.18-6.86-.39-2.61-.17-5.11.1-7.56.3-2.45.8-4.86,1.47-7.19.69-2.33,1.5-4.6,2.56-6.74.54-1.06.99-2.16,1.6-3.18.57-1.01,1.14-2.01,1.71-3.01,1.17-1.99,2.42-3.97,3.98-5.73l.07-.08.04-.04.02-.02c.17.14-.36-.35.39.32.01.01.02.01-.02,0-.07-.03-.22.01-.18,0,.03,0,.25-.2.25-.3,0-.05-.01,0,.05.07.02.02.04.04.06.06-.33-.3.48.43.39.37l-.02.02-.07.08c-.36.4-.72.82-1.07,1.23-.7.83-1.36,1.68-1.99,2.55-.63.87-1.23,1.76-1.79,2.66-.58.88-1.01,1.85-1.52,2.77-.46.93-1.03,1.85-1.4,2.77-.38.93-.7,1.9-.99,2.88-.57,1.97-1.13,4-1.57,5.91-.52,1.92-.82,3.86-1.02,5.78-.19,1.92-.29,3.81-.09,5.61.2,1.79.72,3.5,1.7,4.85.97,1.36,2.36,2.34,3.88,2.6.76.14,1.54.09,2.25-.12.18-.05.35-.12.52-.19.1-.04.48-.22.8-.47.62-.49,1.46-1.45,2.17-2.17,0,.23.05.23,0,.54l-.07.77c-.04.51-.08,1.03-.13,1.54-.03.48-.06,1.04-.06,1.41v.82c.02,1.08.14,2.11.4,3.1.49,1.96,1.62,3.69,3.3,4.34,1.68.71,3.53.33,5-.63.75-.46,1.43-1.03,2.06-1.63.85-.79,1.95-2.15,2.7-2.88-.03.84-.06,1.77-.04,2.57,0,.39.05.77.1,1.11.03.22.08.44.13.65.21.85.54,1.65,1,2.33.9,1.37,2.29,2.24,3.71,2.42,1.43.2,2.8-.15,3.92-.68,1.14-.52,2.03-1.28,2.76-2.01,1.45-1.5,2.27-2.92,2.87-3.84.58-.93.89-1.41.94-1.39.04.02-.18.55-.68,1.53-.52.97-1.26,2.45-2.7,4.09-.73.8-1.65,1.65-2.87,2.25-1.2.61-2.7,1.06-4.35.87-1.65-.15-3.35-1.15-4.41-2.71-.54-.77-.94-1.67-1.2-2.63-.06-.24-.12-.48-.16-.73-.02-.13-.04-.23-.05-.35-.03-.22-.04-.45-.03-.66.01-.08-.02-.03-.06.02l-.1.12-.2.23-.2.22-.27.28c-.66.65-1.38,1.28-2.22,1.82-.83.54-1.79.99-2.86,1.17-1.07.18-2.21.06-3.27-.34-1.07-.4-2-1.16-2.7-2.08-.69-.93-1.16-2-1.46-3.11-.31-1.11-.46-2.27-.49-3.43v-.87s0-.3,0-.3v-.24s.01-.11.01-.11c.01-.07-.04.04-.06.04-.09.09-.18.16-.28.22l-.07.04-.27.13c-.23.1-.46.19-.69.26-.94.29-1.96.35-2.94.19-1.99-.32-3.76-1.57-4.93-3.19-1.2-1.63-1.81-3.62-2.05-5.6-.25-1.99-.15-3.99.03-5.97.19-2,.49-4.01,1.01-6.01.46-2.04.98-3.98,1.56-6.02.29-1.02.61-2.04,1.03-3.07.42-1.04.97-1.94,1.45-2.93.52-.96.96-1.96,1.57-2.9.58-.94,1.19-1.87,1.84-2.78.65-.91,1.34-1.8,2.06-2.67.36-.43.73-.86,1.11-1.29.07-.07.02-.05.28-.27.2-.17.58-.3.91-.24.67.14.86.5,1.03.79.15.3.22.66.12,1.08-.05.21-.16.41-.31.58l-.13.15c-1.41,1.61-2.6,3.48-3.73,5.44-.56.99-1.12,1.99-1.69,2.99-.57.96-1,2.03-1.52,3.04-1.01,2.05-1.78,4.23-2.43,6.46-.63,2.23-1.1,4.54-1.39,6.88-.26,2.34-.44,4.75-.1,6.99.18,1.12.51,2.2,1.04,3.14.54.93,1.28,1.76,2.16,2.29.89.53,1.89.73,2.89.54.49-.09.96-.27,1.35-.53.2-.13.37-.28.52-.45.04-.04.07-.09.11-.13l.11-.13c.08-.1.19-.19.31-.27.5-.31,1.06-.27,1.46-.06l-1.48.8c.2-1.72.55-3.44,1.02-5.12,1.96-6.95,5.8-12.95,9.61-18.51.48-.69.96-1.39,1.44-2.08l.18-.26c.06-.09.21-.29.32-.38.12-.12.24-.22.37-.32.07-.05.14-.1.23-.15.11-.05.16-.11.49-.17,0,0,.94-.16,1.2.86.03.18,0,.36-.03.5-.02.06-.04.11-.07.17-.09.18-.15.25-.17.28l-.17.25-.35.51c-.92,1.36-1.78,2.77-2.62,4.18-.83,1.42-1.65,2.84-2.47,4.24-.83,1.43-1.61,2.79-2.32,4.22-1.42,2.83-2.58,5.74-3.29,8.7-.36,1.48-.6,2.97-.71,4.46-.09,1.49-.14,2.99.09,4.37.23,1.38.71,2.72,1.53,3.65.8.93,2,1.33,3.22,1.21,1.2-.11,2.36-.8,3.37-1.68.51-.44,1-.93,1.46-1.44l.69-.78.34-.4c.07-.07.04-.09.35-.35.27-.21.66-.26.91-.22l-1.02.79c.18-1.59.55-3.08.94-4.52.39-1.44.82-2.87,1.28-4.26.93-2.78,2-5.44,3.19-7.97,1.19-2.53,2.49-4.92,3.87-7.18l.52-.84.26-.42c.11-.17.22-.32.33-.46.11-.14.22-.27.36-.41l.12-.12s.02-.03.13-.11c.16.03-.26-.16.76-.09.61.14.46,1.11.43.99-.14.3-.15.26-.19.35l-.48.8c-.63,1.07-1.19,2.17-1.72,3.27-1.06,2.2-1.98,4.4-2.91,6.52-.93,2.1-1.74,4.15-2.42,6.15-.69,2-1.25,3.97-1.73,5.85-.46,1.87-.75,3.68-.55,5.35.2,1.65.92,3.16,2.03,4.09,1.1.95,2.55,1.17,3.82.95,1.29-.21,2.4-.79,3.3-1.47.89-.69,1.6-1.47,2.16-2.22,1.13-1.5,1.83-2.8,2.35-3.64.07-.11.11-.19.2-.31.1-.11.25-.16.37-.14.24.03.38.18.44.31.1.3-.08.41-.07.4Z"/>
      </g>
      <g>
        <path class="cls-9" d="M115.71,92.97c-.06,2.36-.19,4.72-.38,7.08-.06.63-.11,1.26-.18,1.89-.28,2.86-.67,5.7-1.15,8.53-.78,4.62-.33,9.79-1.63,14.28l.86,1.58.28.51c.11.19.05.42-.14.54-.1.06-.22.06-.34.02-.09-.02-.17-.08-.22-.17-.37-.66-.73-1.33-1.1-1.99-.15-.08-.26-.23-.2-.45.65-2.23-.27-5.08.26-7.35.68-2.95,1.26-5.94,1.71-8.93.46-2.97.82-5.96,1.06-8.96.18-2.19.3-4.39.35-6.6.02-.51.82-.51.8,0Z"/>
        <path class="cls-9" d="M115.71,92.97c-.06,0-.13-.29-.43-.18-.06.02-.1.08-.11.12,0,.03,0,.03,0,.1,0,.08,0,.16.01.24,0,.34.02.71.03,1.13.01.85.02,1.9,0,3.12,0,.61-.02,1.26-.03,1.95-.03.69-.11,1.42-.17,2.18-.31,3.05-.48,6.74-1.32,10.75-.18,1.01-.37,2.04-.56,3.1-.17,1.04-.45,2.21-.52,3.08-.06.98.06,2.08.12,3.26.03.59.05,1.21,0,1.87-.03.33-.07.66-.14,1l-.06.26-.03.13v.02s-.52-.15-.52-.15h-.04s-.06-.02-.06-.02c-.15.02.03,0,.08-.15l.27-.71.38.69c.32.58.64,1.17.97,1.76l.07.12.03.06.02.03v.02s.01,0,.01,0h0s-.6.33-.6.33h0s0,0,0,0c-.02.02.01-.01.01-.03l.08-.13c-.06.17.02.25-.07.11.02.02.06.01.01.02h-.01s0,0,0,0c-.23.13.51-.29-.52.29l-.03-.05-.06-.1-.11-.2-.22-.4-.43-.79-.33-.6-.11-.2c-.04-.06-.08-.13-.04-.2l.11-.43.15-.55c.04-.13.07-.27.1-.41.06-.28.13-.55.17-.83.1-.55.19-1.11.26-1.66.28-2.22.36-4.44.54-6.57.09-1.07.19-2.11.35-3.13.18-1.04.31-1.96.46-2.89.29-1.84.57-3.56.82-5.13.54-3.14.66-5.71.91-7.48.22-1.77.41-2.75.55-2.75.14,0,.22.99.25,2.79,0,1.79.09,4.4-.27,7.6-.18,1.6-.37,3.35-.58,5.23-.21,1.92-.52,3.8-.6,5.9-.12,2.09-.16,4.32-.43,6.68-.07.59-.15,1.18-.26,1.79-.05.3-.12.6-.18.9-.03.15-.06.3-.1.45-.03.12-.1.39-.08.31h0s0,0,0,0l.1.19.44.79.22.39.11.19.05.1.03.05s.05.1.08.16c.22.5.09,1.15-.27,1.52-.15.17-.44.37-.74.42-.3.06-.57.02-.78-.06l.07.02c-.31-.08-.64-.31-.82-.63l-.15-.27c-.33-.59-.65-1.18-.97-1.76l.42.41c-.19-.1-.39-.25-.55-.49-.16-.24-.24-.58-.21-.84,0-.12.05-.28.06-.32l.02-.09.04-.17c.05-.23.09-.48.11-.73.04-.51.04-1.05.01-1.6-.04-1.11-.17-2.27-.08-3.5.15-1.33.42-2.28.61-3.34.21-1.04.42-2.05.62-3.04.93-3.93,1.25-7.55,1.74-10.55.11-.75.23-1.47.32-2.15.06-.68.12-1.32.18-1.92.12-1.2.23-2.23.33-3.08.06-.41.11-.79.15-1.12.01-.08.02-.16.04-.23,0-.08.04-.23.1-.32.13-.2.34-.28.49-.28.33-.02.53.22.54.37.02.15-.04.21-.06.21Z"/>
      </g>
      <g>
        <path class="cls-9" d="M127.53,154.11c-.24-.46-.93-.05-.69.4,3.29,6.2,4.74,13.28,4.17,20.27-.04.51.76.51.8,0,.58-7.13-.93-14.36-4.28-20.67Z"/>
        <path class="cls-9" d="M127.53,154.11c.21-.12,1.77,1.94,3.25,5.82.73,1.94,1.4,4.33,1.79,7.05.21,1.36.32,2.8.36,4.3.02.75,0,1.51-.02,2.29-.02.39-.05.78-.07,1.17,0,.07,0,.05-.02.2-.02.15-.06.31-.14.47-.16.32-.44.56-.73.67-.29.12-.59.15-.92.07-.31-.07-.7-.3-.89-.68-.1-.18-.14-.38-.15-.55,0-.07,0-.18,0-.23v-.07s.02-.28.02-.28l.04-.56c.03-.37.03-.74.05-1.11.03-.73.02-1.46,0-2.17-.03-1.42-.15-2.79-.32-4.08-.32-2.6-.91-4.89-1.48-6.8-.58-1.91-1.17-3.42-1.58-4.47-.05-.13-.09-.26-.14-.38-.03-.08-.14-.33-.09-.53.09-.41.42-.53.63-.54.24,0,.39.14.42.23.04.1.02.15,0,.17-.06.04-.21-.09-.34.01-.07.04-.13.15-.09.19,0-.04.18.25.33.48.64.96,1.46,2.43,2.24,4.35.77,1.92,1.53,4.29,1.98,7.01.23,1.36.4,2.79.46,4.29.03.75.05,1.51.03,2.29-.01.39-.01.78-.04,1.17l-.04.59-.02.3v.07c-.24-.02.52.05-.53-.04h-.01s-.02,0-.02,0h-.05c-.06,0-.1.02-.1.02-.02.02.04-.04.05-.1.01-.06,0-.07.01-.03.01.03.05.06.03.05-.01,0-.04-.02-.08-.02h-.01c.47.04-.65-.05-.53-.05h0s0-.04,0-.04v-.07c.03-.37.05-.74.08-1.1.03-.73.06-1.45.05-2.17-.01-1.42-.07-2.79-.22-4.09-.28-2.6-.77-4.92-1.3-6.84-1.07-3.84-2.15-6.12-1.87-6.27Z"/>
      </g>
      <path class="cls-9" d="M118.89,111.4c-.81,1.38-1.56,2.81-2.23,4.27-.38-1.54-1.63-4.17-2.02-5.71.48-2.83.87-5.68,1.15-8.53.74,2.95,2.35,7.02,3.09,9.97Z"/>
      <path class="cls-9" d="M112.43,85.72c-.71-.76-1.52-1.2-2.43-1.01-.3.06-.62.3-.96.68-.59-2.34-1.18-4.68-1.77-7.02-.93-3.7-1.87-7.38-2.79-11.08h0c-.93-3.69-1.86-7.37-2.78-11.06-.26-1.05-.53-2.09-.79-3.14-.66-2.63-1.33-5.26-1.99-7.89h0c-.93-3.69-1.86-7.36-2.78-11.04-.95-3.76-1.9-7.52-2.84-11.29h0c-.97-3.83-1.93-7.64-2.89-11.46-.48-1.91,2.29-2.76,2.99-1.14.04.09.07.18.1.28l2.71,10.73,2.78,11.05.47,1.87c.77,3.07,1.54,6.12,2.31,9.19.93,3.7,1.86,7.39,2.79,11.09.93,3.71,1.87,7.4,2.8,11.11.86,3.43,1.73,6.87,2.59,10.3.07.28.14.57.22.85.75,2.99,1.5,5.97,2.26,8.97Z"/>
      <path class="cls-7" d="M236.2,78.84c-21.8-.08-43.61,3.83-64.03,11.47-5.04,1.88-10.1,4.02-15.47,4.36-5.37.35-11.24-1.48-14.17-6-1.69-2.59-2.23-5.79-3.77-8.48-.72-1.26-1.64-2.36-2.7-3.31-4.07-3.59-10.26-4.81-15.75-3.86-3.57.62-6.92,1.96-10.13,3.65-.07-.28-.14-.57-.22-.85-.86-3.41-1.72-6.83-2.58-10.24,0,0,0,0-.02,0-.94-3.71-1.87-7.4-2.8-11.11-.94-3.7-1.87-7.39-2.79-11.09-.77-3.07-1.54-6.12-2.31-9.19l-.47-1.87-2.78-11.05-2.71-10.73c-.02-.1-.06-.19-.1-.28,5.64-3.67,11.5-7.32,18.12-8.47,6.93-1.2,14.97,1.06,18.46,7.16,1.34,2.35,1.92,5.08,3.18,7.48.18.34.38.68.58,1,2.93,4.51,8.81,6.34,14.17,6,5.37-.34,10.43-2.48,15.47-4.37,20.42-7.64,42.24-11.55,64.03-11.46l1.46,11.88,1.46,11.89,1.46,11.88,1.46,11.88,1.46,11.82h0l1.46,11.88Z"/>
      <path class="cls-4" d="M236.2,78.84c-21.8-.08-43.61,3.83-64.03,11.47-5.04,1.88-10.1,4.02-15.47,4.36-5.37.35-11.24-1.48-14.17-6-1.69-2.59-2.23-5.79-3.77-8.48-.72-1.26-1.64-2.36-2.7-3.31-4.07-3.59-10.26-4.81-15.75-3.86-3.57.62-6.92,1.96-10.13,3.65-.07-.28-.14-.57-.22-.85-.86-3.41-1.72-6.83-2.58-10.24,0,0,0,0-.02,0-.94-3.71-1.87-7.4-2.8-11.11-.94-3.7-1.87-7.39-2.79-11.09-.77-3.07-1.54-6.12-2.31-9.19l-.47-1.87-2.78-11.05-2.71-10.73c-.02-.1-.06-.19-.1-.28,5.64-3.67,11.5-7.32,18.12-8.47,6.93-1.2,14.97,1.06,18.46,7.16,1.34,2.35,1.92,5.08,3.18,7.48.18.34.38.68.58,1,2.93,4.51,8.81,6.34,14.17,6,5.37-.34,10.43-2.48,15.47-4.37,20.42-7.64,42.24-11.55,64.03-11.46l1.46,11.88,1.46,11.89,1.46,11.88,1.46,11.88,1.46,11.82h0l1.46,11.88Z"/>
      <g>
        <path class="cls-10" d="M234.77,78.87c-21.8-.08-42.18,3.79-62.6,11.44-5.04,1.88-10.1,4.02-15.47,4.36-5.37.35-11.24-1.48-14.17-6-1.69-2.59-2.23-5.79-3.77-8.48-.72-1.26-1.64-2.36-2.7-3.31-4.07-3.59-10.26-4.81-15.75-3.86-3.57.62-5.62,1.24-8.84,2.93-.07-.28-.14-.57-.22-.85-.86-3.41-1.72-6.83-2.58-10.24,0,0,0,0-.02,0-.18-.74-.37-1.46-.55-2.2h0c3.71-2.09,6.25-3.17,10.44-3.89,5.78-1.01,12.4.37,16.29,4.51,1.14,1.21,1.96,2.66,2.79,4.14,1.26,2.23,1.75,4.84,3.14,6.99,2.93,4.51,8.8,6.34,14.17,6,5.36-.34,10.43-2.48,15.47-4.37,20.42-7.64,40.79-11.52,62.59-11.43l.29,2.36h0l1.46,11.88Z"/>
        <path class="cls-6" d="M231.27,50.29c-21.8-.08-42.2,3.88-62.62,11.53-5.04,1.88-10.09,4.02-15.47,4.36-5.36.35-11.24-1.48-14.17-6-1.1-1.68-1.51-3.72-2.5-5.48-.94-1.71-1.69-3.49-2.89-4.98-3.75-4.66-10.77-6.23-16.83-5.18-4.79.83-7.87,2.29-12.06,4.77-.57-2.24-1.14-4.47-1.7-6.72-.55-2.19-1.1-4.38-1.66-6.56,4.68-2.88,8.25-4.81,13.66-5.73,6.36-1.1,13.73.69,17.38,5.84,1.25,1.77,1.92,3.87,2.99,5.8.7,1.29,1.06,2.76,1.86,3.99,2.93,4.51,8.8,6.34,14.17,6,5.36-.34,10.43-2.48,15.47-4.37,20.42-7.64,40.82-11.61,62.62-11.52l.88,7.16.87,7.08Z"/>
        <path class="cls-10" d="M227.74,21.86c-21.8-.08-42.18,3.83-62.6,11.47-5.04,1.88-10.09,4.02-15.47,4.36-5.36.35-11.24-1.48-14.17-6-.5-.77-.78-1.67-1.22-2.49-1.17-2.16-1.78-4.59-3.08-6.64-3.56-5.64-11.28-7.65-17.92-6.51-6,1.04-10.12,3.46-15.27,6.74l-.57-2.26-2.71-10.73c-.02-.1-.06-.19-.1-.28,5.64-3.67,10.27-6.56,16.89-7.71,6.93-1.2,14.97,1.06,18.46,7.16,1.34,2.35,1.92,5.08,3.18,7.48.18.34.38.68.58,1,2.93,4.51,8.81,6.34,14.17,6,5.37-.34,10.43-2.48,15.47-4.37,20.42-7.64,40.8-11.55,62.6-11.46l1.46,11.88.29,2.36Z"/>
      </g>
      <path class="cls-2" d="M96.77,23.55s0,0-.02,0"/>
      <g>
        <path class="cls-9" d="M135.23,198.61c-6.31.3-12.61.59-18.92.89-.51.02-.52.82,0,.8,6.31-.3,12.61-.59,18.92-.89.51-.02.52-.82,0-.8Z"/>
        <path class="cls-9" d="M135.23,198.61s.03-.09.13-.12c.09-.03.29,0,.44.19.13.18.23.48.02.83-.1.17-.31.31-.53.35-.12.03-.25.05-.38.08-1.01.2-2.48.41-4.3.61-3.64.4-8.67.79-14.24,1.05-.32.02-.74-.07-1.09-.34-.35-.27-.54-.65-.6-.97-.12-.64.08-1.36.76-1.8.16-.1.34-.17.51-.21.08-.02.16-.03.25-.04h.1s.26-.02.26-.02l.51-.02c.68-.03,1.35-.05,2-.08,1.31-.04,2.58-.07,3.79-.1,2.42-.05,4.59-.06,6.42-.03,3.66.06,5.93.27,5.95.63.02.35-2.22.78-5.86,1.18-1.82.2-3.99.4-6.4.58-1.21.08-2.47.17-3.78.25-.66.04-1.32.08-2,.11l-.51.03h-.26s-.03.01-.03.01h-.02s-.04-.8-.04-.8c0-.02,0-.04,0-.06,0-.02-.02-.05-.02-.05-.02.01.16.06.05.05-.04,0-.1.05-.1.05,0,0,.04-.06.02-.17-.07-1.56-.02-.43-.03-.78h0s.02,0,.02,0h.03s.06,0,.06,0h.13s.26-.02.26-.02l.52-.02c.34-.01.69-.03,1.02-.04.68-.03,1.35-.05,2-.07,1.31-.04,2.58-.07,3.79-.1,2.41-.05,4.59-.06,6.42-.03,1.83.03,3.31.1,4.34.2.12.01.23.03.34.04.01.06.04.09.01.06.04.02.1-.06.12-.11.06-.12-.11-.22-.11-.3Z"/>
      </g>
      <path class="cls-10" d="M123.34,132.1c1.34,2.87,1.05,6.95-1.02,9.37-3.85,3.96-8.96-1.39-7.72-6.02.36-4.99,5.74-8.1,8.74-3.35Z"/>
      <path class="cls-10" d="M147.73,152.3c-.57,4.75-6.81,5.63-8.4,1.03-1.22-2.68-.19-7.17,2.07-9.12,4.85-3.37,7.82,4.22,6.33,8.09Z"/>
      <path class="cls-10" d="M133.71,141.5c2.58,3.37,1.07,11-3.89,10.99-5.71-.95-5.09-9.15-1.72-12.3,1.72-1.55,4.43-.4,5.61,1.3Z"/>
      <path class="cls-10" d="M111.16,86.29c.33,3.34.08,10.91-4.5,10.8-2.32-1.49,1.56-17.19,4.5-10.8Z"/>
      <path class="cls-3" d="M111.26,112.12s-.44,12.96.46,16.13l-7.28-1.43,4.53-16.3,2.29,1.6Z"/>
      <polygon class="cls-9" points="113.99 110.48 114.21 116.64 117.34 113.41 113.99 110.48"/>
    </g>
  </g>
</svg>